<svg width="169" height="170" fill="none" xmlns="http://www.w3.org/2000/svg"><g clip-path="url('#clip0_2_31')"><path d="M169 .672H0v169h169v-169Z" fill="#fff"/><path d="M169 .672H0v169h169v-169Z" fill="#F4FAF6"/><path d="M92.24 42.993a1.893 1.893 0 0 1 1.253-1.78c.244-.089.504-.126.763-.111a36.099 36.099 0 0 1 20.659 8.048 1.894 1.894 0 0 1 .697 1.36 1.893 1.893 0 0 1-.541 1.428l-19.565 19.85a1.91 1.91 0 0 1-2.08.427 1.886 1.886 0 0 1-1.185-1.751v-27.47Z" stroke="#111" stroke-width="1.482" stroke-linecap="round" stroke-linejoin="round"/><path d="M110.868 56.203a26.677 26.677 0 0 0-18.628-7.534M84.622 67.588c-6.171 0-12.15 2.126-16.92 6.014a26.453 26.453 0 0 0-9.238 15.309 26.327 26.327 0 0 0 2.64 17.653 26.606 26.606 0 0 0 13.317 11.983 26.854 26.854 0 0 0 17.95.873 26.667 26.667 0 0 0 14.433-10.635 26.34 26.34 0 0 0 4.362-17.313 26.403 26.403 0 0 0-7.688-16.131" stroke="#111" stroke-width="1.482" stroke-linecap="round" stroke-linejoin="round"/><path d="M75.094 84.615c2.105 0 3.811-1.694 3.811-3.784s-1.706-3.783-3.81-3.783c-2.105 0-3.81 1.694-3.81 3.783 0 2.09 1.706 3.784 3.81 3.784ZM71.284 101.643c2.104 0 3.81-1.695 3.81-3.784 0-2.09-1.706-3.784-3.81-3.784-2.105 0-3.81 1.694-3.81 3.784s1.705 3.784 3.81 3.784ZM86.525 112.994c2.104 0 3.81-1.695 3.81-3.784 0-2.09-1.706-3.784-3.81-3.784s-3.81 1.694-3.81 3.784c0 2.089 1.706 3.784 3.81 3.784ZM99.861 101.643c2.105 0 3.811-1.695 3.811-3.784 0-2.09-1.706-3.784-3.81-3.784-2.105 0-3.81 1.694-3.81 3.784s1.705 3.784 3.81 3.784Z" fill="#81D489" stroke="#81D489" stroke-width="1.482" stroke-linecap="round" stroke-linejoin="round"/><path d="m98.823 79.977 1.04.855a4 4 0 0 1 1.113 2.817 4 4 0 0 1-1.184 2.787 4.057 4.057 0 0 1-2.808 1.176 4.058 4.058 0 0 1-2.835-1.104l-1.041-.856" fill="#81D489"/><path d="m98.823 79.977 1.04.855a4 4 0 0 1 1.113 2.817 4 4 0 0 1-1.184 2.787 4.057 4.057 0 0 1-2.808 1.176 4.058 4.058 0 0 1-2.835-1.104l-1.041-.856" stroke="#81D489" stroke-width="1.482" stroke-linecap="round" stroke-linejoin="round"/><path d="M110.257 71.451a1.904 1.904 0 0 0-1.37-.634 1.918 1.918 0 0 0-1.404.555L84.621 94.075v-32.11a1.893 1.893 0 0 0-1.252-1.78 1.919 1.919 0 0 0-.764-.111 34.416 34.416 0 0 0-20.885 8.65A33.99 33.99 0 0 0 50.808 88.41a33.851 33.851 0 0 0 3.813 22.151 34.215 34.215 0 0 0 16.88 14.969 34.513 34.513 0 0 0 22.593 1.267 34.28 34.28 0 0 0 18.469-12.984 33.888 33.888 0 0 0 6.303-21.583 33.93 33.93 0 0 0-8.609-20.783v.004Z" stroke="#111" stroke-width="1.482" stroke-linecap="round" stroke-linejoin="round"/></g><defs><clipPath id="clip0_2_31"><path fill="#fff" transform="translate(0 .672)" d="M0 0h169v169H0z"/></clipPath></defs></svg>