<svg width="169" height="170" fill="none" xmlns="http://www.w3.org/2000/svg"><g clip-path="url('#clip0_2_50')"><path d="M169 .672H0v169h169v-169Z" fill="#fff"/><path d="M169 .672H0v169h169v-169Z" fill="#F4FAF6"/><path d="M76.343 41.098H65.46v11.86h10.883v-11.86Z" fill="#81D489"/><path d="M64.87 52.958h11.474" stroke="#040404" stroke-width="2.224" stroke-linecap="round" stroke-linejoin="round"/><path d="M70.608 77.643c2.111 0 3.823-1.7 3.823-3.797 0-2.097-1.712-3.796-3.823-3.796-2.112 0-3.824 1.7-3.824 3.796 0 2.097 1.712 3.797 3.824 3.797ZM107.736 94.779a1.27 1.27 0 0 0 1.273-1.265 1.27 1.27 0 0 0-1.273-1.266 1.27 1.27 0 0 0-1.274 1.266c0 .699.57 1.265 1.274 1.265ZM99.423 100.197c.82 0 1.485-.66 1.485-1.475a1.48 1.48 0 0 0-1.485-1.475c-.82 0-1.485.66-1.485 1.475a1.48 1.48 0 0 0 1.485 1.475ZM105.472 108.241c.727 0 1.316-.585 1.316-1.307s-.589-1.307-1.316-1.307c-.727 0-1.316.585-1.316 1.307s.589 1.307 1.316 1.307Z" fill="#81D489" stroke="#81D489" stroke-width="2.224" stroke-linecap="round" stroke-linejoin="round"/><path d="m58.934 77.058 2.345 3.328a11.312 11.312 0 0 0 4.06 3.567 11.401 11.401 0 0 0 10.53 0 11.306 11.306 0 0 0 4.06-3.567l2.349-3.328-.238-.436a46.407 46.407 0 0 1-5.697-22.266V43.464c0-.504-.202-.987-.56-1.343a1.919 1.919 0 0 0-1.353-.556h-7.648c-.507 0-.994.2-1.352.556-.36.356-.56.839-.56 1.343v10.892a46.412 46.412 0 0 1-5.699 22.266 43.866 43.866 0 0 0-5.774 20.99v23.706a7.588 7.588 0 0 0 2.247 5.363 7.696 7.696 0 0 0 5.401 2.232h19.32M104.129 113.722v15.19M94.57 128.912h19.121M94.386 87.138h19.489M98.14 71.947c-.46 0-.905.165-1.253.465-.347.3-.574.715-.638 1.167-.83 5.86-3.592 25.628-3.592 28.749 0 3.022 1.21 5.92 3.36 8.057a11.513 11.513 0 0 0 8.113 3.337c3.043 0 5.961-1.2 8.113-3.337a11.357 11.357 0 0 0 3.36-8.057c0-3.121-2.761-22.889-3.591-28.749a1.895 1.895 0 0 0-.647-1.173 1.917 1.917 0 0 0-1.265-.46H98.14Z" stroke="#040404" stroke-width="1.482" stroke-linecap="round" stroke-linejoin="round"/><path d="M74.43 41.564c.507 0 .994.2 1.352.556.36.357.56.84.56 1.343v10.892a46.414 46.414 0 0 0 5.699 22.266 43.873 43.873 0 0 1 5.775 20.99v23.706a7.592 7.592 0 0 1-2.248 5.364 7.69 7.69 0 0 1-5.401 2.231" stroke="#040404" stroke-width="1.482" stroke-linecap="round" stroke-linejoin="round"/></g><defs><clipPath id="clip0_2_50"><path fill="#fff" transform="translate(0 .672)" d="M0 0h169v169H0z"/></clipPath></defs></svg>