<svg width="25" height="23" fill="none" xmlns="http://www.w3.org/2000/svg"><g clip-path="url('#clip0_2_171')" stroke="#81D489" stroke-width="1.8" stroke-linecap="round" stroke-linejoin="round"><path d="M6.087 14.358a2.2 2.2 0 0 0-4.4 0v4.489a2.2 2.2 0 0 0 4.4 0v-4.489ZM14.887 7.691a2.2 2.2 0 0 0-4.4 0v11.156a2.2 2.2 0 0 0 4.4 0V7.69ZM23.687 3.247a2.2 2.2 0 0 0-4.4 0v15.6a2.2 2.2 0 0 0 4.4 0v-15.6Z"/></g><defs><clipPath id="clip0_2_171"><path fill="#fff" transform="translate(.688 .047)" d="M0 0h24v22H0z"/></clipPath></defs></svg>