<svg width="169" height="170" fill="none" xmlns="http://www.w3.org/2000/svg"><g clip-path="url('#clip0_2_71')"><path d="M169 .672H0v169h169v-169Z" fill="#fff"/><path d="M169 .672H0v169h169v-169Z" fill="#F4FAF6"/><path d="M96.371 87.836h37.748l2.28 2.103-9.447 14.354-2.361 1.295-3.421-.526-25.572-16.175.773-1.051ZM42.744 115.414l-3.91-16.337.815-3.073 6.678-4.448h9.855l22.966-1.213 2.931 5.661-4.398 19.41-2.443 2.264H44.373l-1.629-2.264Z" fill="#81D489"/><path d="m81.273 99.403-3.324 14.915a4.493 4.493 0 0 1-1.588 2.534 4.556 4.556 0 0 1-2.836.991H46.8a4.54 4.54 0 0 1-2.837-.99 4.491 4.491 0 0 1-1.588-2.535l-3.352-14.92" stroke="#040404" stroke-width="1.275" stroke-linecap="round" stroke-linejoin="round"/><path d="M51.514 71.453c-10.336 2.089-19.687 8.022-19.687 18.263a10.052 10.052 0 0 0 2.18 6.279 10.168 10.168 0 0 0 5.635 3.575c2.23.527 4.575.29 6.652-.673a10.135 10.135 0 0 0 4.793-4.631 10.073 10.073 0 0 0 3.732 4.07 10.17 10.17 0 0 0 5.331 1.508c1.884 0 3.73-.522 5.332-1.508a10.075 10.075 0 0 0 3.732-4.07 10.135 10.135 0 0 0 4.792 4.631c2.078.963 4.423 1.2 6.653.673a10.164 10.164 0 0 0 5.635-3.575 10.053 10.053 0 0 0 2.18-6.279c0-10.234-9.352-16.171-19.693-18.263" fill="#F4FAF6"/><path d="M51.514 71.453c-10.336 2.089-19.687 8.022-19.687 18.263a10.052 10.052 0 0 0 2.18 6.279 10.168 10.168 0 0 0 5.635 3.575c2.23.527 4.575.29 6.652-.673a10.135 10.135 0 0 0 4.793-4.631 10.073 10.073 0 0 0 3.732 4.07 10.17 10.17 0 0 0 5.331 1.508c1.884 0 3.73-.522 5.332-1.508a10.075 10.075 0 0 0 3.732-4.07 10.136 10.136 0 0 0 4.792 4.631c2.078.963 4.423 1.2 6.653.673a10.164 10.164 0 0 0 5.635-3.575 10.053 10.053 0 0 0 2.18-6.279c0-10.234-9.352-16.171-19.693-18.263" stroke="#040404" stroke-width="1.275" stroke-linecap="round" stroke-linejoin="round"/><path d="M60.15 78.899c4.814 0 8.715-3.874 8.715-8.654 0-4.78-3.901-8.655-8.714-8.655-4.814 0-8.715 3.875-8.715 8.654 0 4.78 3.901 8.655 8.715 8.655ZM60.15 61.59a7.6 7.6 0 0 1 .319-3.5 7.644 7.644 0 0 1 1.86-2.99 7.714 7.714 0 0 1 3.012-1.848 7.756 7.756 0 0 1 3.525-.316M50.186 95.717l3.428 22.126M70.115 95.717l-3.428 22.126M132.533 118.103H98.145a4.61 4.61 0 0 1-3.248-1.336 4.547 4.547 0 0 1-1.345-3.225V92.14c0-1.148.459-2.249 1.276-3.06a4.37 4.37 0 0 1 3.082-1.267h34.859c1.155 0 2.263.456 3.081 1.267a4.31 4.31 0 0 1 1.276 3.06v21.402a4.548 4.548 0 0 1-1.345 3.225 4.61 4.61 0 0 1-3.248 1.336Z" stroke="#040404" stroke-width="1.275" stroke-linecap="round" stroke-linejoin="round"/><path d="m95.143 88.796 26.165 16.181a4.369 4.369 0 0 0 1.595.597 4.365 4.365 0 0 0 3.256-.757 4.33 4.33 0 0 0 1.162-1.239l8.82-14.179M128.111 52.859h-25.544a4.666 4.666 0 0 0-3.286 1.352 4.6 4.6 0 0 0-1.362 3.264v30.001h34.86v-29.99a4.622 4.622 0 0 0-2.881-4.28 4.672 4.672 0 0 0-1.787-.347ZM97.909 70.168h34.859" stroke="#040404" stroke-width="1.275" stroke-linecap="round" stroke-linejoin="round"/><path d="M115.93 53.29v34.546" stroke="#040404" stroke-width="1.275"/></g><defs><clipPath id="clip0_2_71"><path fill="#fff" transform="translate(0 .672)" d="M0 0h169v169H0z"/></clipPath></defs></svg>