<svg width="169" height="170" fill="none" xmlns="http://www.w3.org/2000/svg"><g clip-path="url('#clip0_2_11')"><path d="M169 .672H0v169h169v-169Z" fill="#fff"/><path d="M169 .672H0v169h169v-169Z" fill="#F4FAF6"/><path d="M63.661 102.009c6.003 0 10.868-4.832 10.868-10.792s-4.865-10.793-10.867-10.793c-6.003 0-10.868 4.832-10.868 10.793 0 5.96 4.865 10.792 10.867 10.792Z" fill="#81D489"/><path d="M77.05 60.827c-2.537 0-4.97-1-6.763-2.782a9.464 9.464 0 0 1-2.801-6.715 9.463 9.463 0 0 1 2.8-6.715 9.597 9.597 0 0 1 6.763-2.782h42.078c2.537 0 4.969 1.001 6.763 2.782a9.465 9.465 0 0 1 2.801 6.715 9.465 9.465 0 0 1-2.801 6.715 9.599 9.599 0 0 1-6.763 2.782H77.049ZM74.692 42.122l7.165 7.12M90.63 41.834l7.458 7.407M106.86 41.834l7.459 7.407M86.612 91.06a22.677 22.677 0 0 1-3.792 12.706 22.913 22.913 0 0 1-10.267 8.463 23.099 23.099 0 0 1-13.274 1.361 22.999 22.999 0 0 1-11.792-6.201 22.75 22.75 0 0 1-6.326-11.668 22.645 22.645 0 0 1 1.28-13.19 22.827 22.827 0 0 1 8.452-10.254 23.066 23.066 0 0 1 12.767-3.853H84.7a11.519 11.519 0 0 1 7.78 3 11.365 11.365 0 0 1 3.676 7.444 11.344 11.344 0 0 1-2.374 7.947 11.493 11.493 0 0 1-7.17 4.246Z" stroke="#040404" stroke-width="1.482" stroke-linecap="round" stroke-linejoin="round"/><path d="M63.66 102.613c6.339 0 11.477-5.103 11.477-11.396 0-6.294-5.138-11.396-11.476-11.396-6.338 0-11.476 5.102-11.476 11.396 0 6.293 5.138 11.396 11.476 11.396ZM118.334 68.424a7.572 7.572 0 0 0-2.24 5.372c0 2.014.806 3.947 2.24 5.371a7.592 7.592 0 0 1 1.832 2.924 7.527 7.527 0 0 1 .344 3.428" stroke="#040404" stroke-width="1.482" stroke-linecap="round" stroke-linejoin="round"/><path d="M127.095 89.188a7.566 7.566 0 0 0 1.581-5.132 7.573 7.573 0 0 0-2.228-4.889 7.578 7.578 0 0 1-2.087-3.854 7.548 7.548 0 0 1 .4-4.359 1.858 1.858 0 0 0-.217-1.73 1.884 1.884 0 0 0-1.562-.8h-11.858a1.925 1.925 0 0 0-1.492.669 7.566 7.566 0 0 0-1.628 5.15 7.578 7.578 0 0 0 2.228 4.924 7.56 7.56 0 0 1 2.197 4.559M85.2 122.199a7.692 7.692 0 0 0 5.773-.983 7.636 7.636 0 0 0 2.167-2.04 7.576 7.576 0 0 0 1.215-2.709 7.599 7.599 0 0 1 3.38-4.748 7.692 7.692 0 0 1 5.769-.984 7.73 7.73 0 0 0 2.985.079 7.674 7.674 0 0 0 4.954-3.101 7.565 7.565 0 0 0 1.215-2.707 7.604 7.604 0 0 1 3.379-4.746 7.696 7.696 0 0 1 5.768-.986" stroke="#040404" stroke-width="1.482" stroke-linecap="round" stroke-linejoin="round"/><path d="M89.06 128.273a1.858 1.858 0 0 0 1.347.886 7.697 7.697 0 0 0 5.263-1.375 7.598 7.598 0 0 0 3.01-4.503 7.573 7.573 0 0 1 1.216-2.707 7.656 7.656 0 0 1 4.954-3.1 7.71 7.71 0 0 1 2.985.079 7.693 7.693 0 0 0 5.77-.984 7.594 7.594 0 0 0 3.379-4.748 7.588 7.588 0 0 1 2.14-3.785 7.672 7.672 0 0 1 3.878-2.004 1.922 1.922 0 0 0 1.401-1.095 1.893 1.893 0 0 0-.116-1.766l-6.335-9.979a1.852 1.852 0 0 0-1.346-.885 7.693 7.693 0 0 0-5.265 1.372 7.596 7.596 0 0 0-3.013 4.5 7.597 7.597 0 0 1-3.38 4.748 7.693 7.693 0 0 1-5.77.985 7.71 7.71 0 0 0-5.773.982 7.629 7.629 0 0 0-2.166 2.042 7.58 7.58 0 0 0-1.215 2.708 7.587 7.587 0 0 1-2.14 3.78 7.674 7.674 0 0 1-3.873 2.002 1.906 1.906 0 0 0-1.563 1.992c.02.307.115.605.278.868l6.334 9.987Z" stroke="#040404" stroke-width="1.482" stroke-linecap="round" stroke-linejoin="round"/></g><defs><clipPath id="clip0_2_11"><path fill="#fff" transform="translate(0 .672)" d="M0 0h169v169H0z"/></clipPath></defs></svg>