<svg width="21" height="22" fill="none" xmlns="http://www.w3.org/2000/svg"><g clip-path="url('#clip0_2_206')" stroke="#81D489" stroke-width="1.8" stroke-linecap="round" stroke-linejoin="round"><path d="M1.5 21v-1.25c0-1.15.233-2.287.685-3.349a8.738 8.738 0 0 1 1.951-2.838 9.021 9.021 0 0 1 2.92-1.897 9.222 9.222 0 0 1 6.888 0 9.022 9.022 0 0 1 2.92 1.897 8.738 8.738 0 0 1 1.95 2.838 8.54 8.54 0 0 1 .686 3.349V21"/><path d="M10.5 11a5.218 5.218 0 0 0 3.637-1.464A4.93 4.93 0 0 0 15.643 6a4.93 4.93 0 0 0-1.506-3.536A5.218 5.218 0 0 0 10.5 1a5.218 5.218 0 0 0-3.636 1.464A4.93 4.93 0 0 0 5.357 6a4.93 4.93 0 0 0 1.507 3.536A5.218 5.218 0 0 0 10.5 11Z"/></g><defs><clipPath id="clip0_2_206"><path fill="#fff" transform="translate(.5)" d="M0 0h20v22H0z"/></clipPath></defs></svg>