<svg width="21" height="23" fill="none" xmlns="http://www.w3.org/2000/svg"><g clip-path="url('#clip0_2_165')" stroke="#81D489" stroke-width="1.8" stroke-linecap="round" stroke-linejoin="round"><path d="M1.125 21.047v-1.25c0-1.15.233-2.287.685-3.349a8.738 8.738 0 0 1 1.951-2.838 9.021 9.021 0 0 1 2.92-1.897 9.222 9.222 0 0 1 6.888 0 9.022 9.022 0 0 1 2.92 1.897 8.738 8.738 0 0 1 1.95 2.838 8.54 8.54 0 0 1 .686 3.349v1.25"/><path d="M10.125 11.047a5.218 5.218 0 0 0 3.637-1.465 4.93 4.93 0 0 0 1.506-3.535 4.93 4.93 0 0 0-1.506-3.536 5.218 5.218 0 0 0-3.637-1.464A5.218 5.218 0 0 0 6.49 2.51a4.93 4.93 0 0 0-1.507 3.536A4.93 4.93 0 0 0 6.49 9.582a5.218 5.218 0 0 0 3.636 1.465Z"/></g><defs><clipPath id="clip0_2_165"><path fill="#fff" transform="translate(.125 .047)" d="M0 0h20v22H0z"/></clipPath></defs></svg>