<svg width="21" height="23" fill="none" xmlns="http://www.w3.org/2000/svg"><g clip-path="url('#clip0_2_275')" stroke="#81D489" stroke-width="1.8" stroke-linecap="round" stroke-linejoin="round"><path d="M1.219 21.344v-1.25c0-1.15.233-2.287.685-3.349a8.738 8.738 0 0 1 1.95-2.838 9.021 9.021 0 0 1 2.92-1.897 9.222 9.222 0 0 1 6.889 0 9.023 9.023 0 0 1 2.92 1.897 8.738 8.738 0 0 1 1.95 2.838 8.54 8.54 0 0 1 .686 3.349v1.25"/><path d="M10.22 11.344a5.218 5.218 0 0 0 3.636-1.465 4.93 4.93 0 0 0 1.506-3.535 4.93 4.93 0 0 0-1.506-3.536 5.218 5.218 0 0 0-3.637-1.464 5.218 5.218 0 0 0-3.637 1.464 4.93 4.93 0 0 0-1.506 3.536 4.93 4.93 0 0 0 1.506 3.535 5.218 5.218 0 0 0 3.637 1.465Z"/></g><defs><clipPath id="clip0_2_275"><path fill="#fff" transform="translate(.219 .344)" d="M0 0h20v22H0z"/></clipPath></defs></svg>