<svg width="130" height="42" fill="none" xmlns="http://www.w3.org/2000/svg"><g clip-path="url('#clip0_2_392')"><path d="M9.463 17.913a.693.693 0 0 1-1.384 0V3.436a.693.693 0 1 1 1.384 0v14.477Zm-3.544 0a.693.693 0 1 1-1.384 0V3.436a.693.693 0 1 1 1.384 0v14.477ZM4.71 40.207a.693.693 0 0 1-1.384 0V26.799a.68.68 0 0 1 .004-.081c.07-1.226-.472-1.93-1.044-2.67-.75-.97-1.538-1.99-1.538-3.996V3.435a.693.693 0 1 1 1.384 0v16.617c0 1.54.64 2.367 1.246 3.152.737.954 1.435 1.858 1.332 3.596v13.407Zm7.157-36.772a.693.693 0 0 1 1.385 0v14.749c0 2.576-.366 2.988-1.556 4.33-.153.171-.322.363-.55.63-1.674 1.962-2.381 4.457-2.254 6.984.134 2.664 1.195 5.36 3.028 7.507 1.067 1.25 1.936 1.875 2.742 1.875v-.002c.807 0 1.676-.625 2.742-1.873 1.833-2.147 2.894-4.843 3.028-7.507.127-2.527-.58-5.022-2.253-6.984-.23-.269-.398-.459-.551-.63-1.19-1.342-1.555-1.754-1.555-4.33V3.435a.692.692 0 1 1 1.384 0v14.749c0 2.058.283 2.377 1.204 3.415.182.205.386.435.567.647 1.916 2.247 2.727 5.085 2.583 7.946-.149 2.965-1.325 5.96-3.358 8.34-1.343 1.574-2.536 2.36-3.791 2.36v-.002c-1.256 0-2.45-.785-3.791-2.357-2.032-2.38-3.21-5.376-3.358-8.34-.144-2.862.667-5.7 2.583-7.947.183-.214.386-.442.567-.647.922-1.038 1.204-1.357 1.204-3.415V3.435Z" fill="#81D489"/><path fill-rule="evenodd" clip-rule="evenodd" d="M11.994 22.779c-.152.17-.32.36-.546.625-1.598 1.873-2.28 4.264-2.158 6.703.13 2.575 1.156 5.186 2.933 7.268.523.612.981 1.053 1.392 1.337.374.26.69.377.966.395h.08c.296 0 .636-.113 1.046-.397.41-.284.869-.723 1.391-1.335 1.777-2.081 2.803-4.693 2.933-7.268.123-2.439-.56-4.83-2.158-6.703a36.73 36.73 0 0 0-.53-.607l-.016-.018-.03-.034c-.57-.641-1-1.126-1.266-1.783-.27-.669-.36-1.482-.36-2.779V3.435a1.093 1.093 0 1 1 2.185 0v14.748c0 1.023.072 1.551.228 1.943.155.39.404.676.875 1.207l.065.074c.164.185.344.389.507.58 1.99 2.334 2.827 5.276 2.678 8.225-.153 3.055-1.364 6.134-3.453 8.58-1.362 1.596-2.658 2.5-4.096 2.5h-.4v-.025c-1.282-.152-2.461-1.03-3.695-2.475-2.089-2.446-3.3-5.525-3.454-8.58-.148-2.95.688-5.892 2.68-8.226.166-.195.349-.402.515-.59l.056-.063c.471-.53.72-.817.875-1.207.156-.392.228-.92.228-1.943V3.435a1.093 1.093 0 0 1 2.186 0v14.748c0 1.297-.09 2.11-.361 2.779-.266.657-.697 1.142-1.266 1.783l-.03.034Zm-1.9-.533c-1.916 2.247-2.727 5.085-2.583 7.946.15 2.965 1.326 5.96 3.358 8.34 1.342 1.572 2.535 2.358 3.791 2.358v.003a2.962 2.962 0 0 0 .4-.027c1.112-.15 2.192-.928 3.392-2.334 2.032-2.38 3.208-5.375 3.358-8.34.144-2.861-.667-5.7-2.584-7.946-.16-.188-.337-.388-.502-.574l-.065-.073c-.92-1.038-1.203-1.357-1.203-3.416V3.435a.693.693 0 0 0-1.385 0v14.748c0 2.577.365 2.989 1.555 4.33l.017.019c.148.167.313.353.534.612 1.674 1.962 2.38 4.457 2.254 6.983-.134 2.665-1.196 5.36-3.029 7.508-1.066 1.248-1.935 1.873-2.742 1.873v.002a1.551 1.551 0 0 1-.4-.05c-.694-.17-1.449-.78-2.342-1.825-1.833-2.148-2.894-4.843-3.028-7.508-.127-2.526.58-5.021 2.254-6.983.228-.267.398-.459.55-.631 1.19-1.341 1.556-1.753 1.556-4.33V3.435a.693.693 0 1 0-1.385 0v14.748c0 2.06-.282 2.378-1.203 3.416l-.056.063c-.167.188-.347.391-.511.584Zm-.231-4.333a1.093 1.093 0 0 1-2.185 0V3.436a1.093 1.093 0 1 1 2.185 0v14.477Zm-3.544 0a1.093 1.093 0 1 1-2.185 0V3.436a1.093 1.093 0 1 1 2.185 0v14.477Zm-1.21 22.294a1.093 1.093 0 0 1-2.185 0V26.799c0-.036.001-.075.005-.115.058-1.058-.392-1.655-.961-2.391l-.002-.002c-.76-.985-1.62-2.097-1.62-4.24V3.435a1.093 1.093 0 1 1 2.185 0v16.616c0 1.399.564 2.134 1.162 2.909l.011.013c.361.468.745.964 1.018 1.57.28.62.44 1.342.387 2.268v13.396ZM3.377 23.204c-.607-.785-1.246-1.613-1.246-3.153V3.435a.693.693 0 1 0-1.385 0v16.616c0 2.006.79 3.027 1.539 3.997.572.74 1.114 1.444 1.043 2.67a.681.681 0 0 0-.004.081v13.408a.693.693 0 1 0 1.385 0V26.8c.102-1.738-.596-2.643-1.332-3.596Zm5.393-4.598c.382 0 .693-.31.693-.693V3.436a.693.693 0 1 0-1.385 0v14.477c0 .382.31.693.692.693Zm-3.543 0c.382 0 .692-.31.692-.693V3.436a.692.692 0 1 0-1.385 0v14.477c0 .382.31.693.693.693Z" fill="#81D489"/><path d="M45.384 34.644c-1.7 0-3.198-.401-4.496-1.204-1.298-.802-2.313-1.9-3.044-3.292-.732-1.392-1.097-2.973-1.097-4.743 0-1.77.365-3.34 1.097-4.708.731-1.393 1.746-2.478 3.044-3.257 1.322-.802 2.832-1.204 4.531-1.204 1.393 0 2.608.272 3.646.815 1.062.543 1.888 1.31 2.478 2.3V8.732h3.752V34.22h-3.362l-.39-2.726c-.566.826-1.345 1.558-2.336 2.195-.991.637-2.266.956-3.823.956Zm.672-3.257c1.605 0 2.915-.554 3.93-1.664 1.038-1.109 1.557-2.537 1.557-4.283 0-1.77-.519-3.198-1.557-4.283-1.015-1.11-2.325-1.664-3.93-1.664-1.604 0-2.926.555-3.964 1.664-1.038 1.085-1.558 2.513-1.558 4.283 0 1.156.236 2.183.708 3.08a5.458 5.458 0 0 0 1.947 2.124c.85.495 1.806.743 2.867.743ZM62.15 13.334c-.707 0-1.297-.213-1.77-.637-.448-.449-.672-1.003-.672-1.664 0-.66.224-1.204.673-1.628.471-.449 1.062-.673 1.77-.673.707 0 1.286.224 1.734.673.472.424.708.967.708 1.628 0 .66-.236 1.215-.708 1.664-.448.424-1.026.637-1.734.637Zm-1.876 20.885V16.661h3.753V34.22h-3.753ZM77.193 34.644c-1.723 0-3.257-.378-4.602-1.133a8.343 8.343 0 0 1-3.115-3.221c-.755-1.37-1.133-2.962-1.133-4.78 0-1.84.366-3.457 1.097-4.849.755-1.392 1.794-2.478 3.115-3.257 1.346-.778 2.903-1.168 4.673-1.168 1.723 0 3.222.39 4.496 1.168a8.004 8.004 0 0 1 2.973 3.045c.708 1.274 1.062 2.678 1.062 4.212 0 .236-.011.496-.035.779 0 .26-.012.555-.035.885H72.024c.118 1.7.673 2.997 1.664 3.894 1.015.873 2.183 1.31 3.505 1.31 1.062 0 1.947-.236 2.655-.709a4.468 4.468 0 0 0 1.628-1.982h3.752c-.472 1.652-1.416 3.033-2.832 4.142-1.392 1.11-3.127 1.664-5.203 1.664Zm0-15.328c-1.251 0-2.36.378-3.328 1.133-.967.731-1.557 1.84-1.77 3.327h9.912c-.07-1.369-.555-2.454-1.451-3.256-.897-.803-2.018-1.204-3.363-1.204ZM96.566 34.22c-1.723 0-3.091-.414-4.106-1.24-1.015-.85-1.522-2.348-1.522-4.495v-8.673h-3.01v-3.15h3.01l.46-4.46h3.292v4.46h4.956v3.15H94.69v8.673c0 .967.2 1.64.602 2.017.424.354 1.144.531 2.159.531h2.018v3.186h-2.903Z" fill="#040404"/></g><defs><clipPath id="clip0_2_392"><path fill="#fff" transform="translate(0 .999)" d="M0 0h130v40.784H0z"/></clipPath></defs></svg>