<svg width="106" height="34" fill="none" xmlns="http://www.w3.org/2000/svg"><path d="M7.716 13.867a.565.565 0 0 1-1.129 0V2.063a.565.565 0 1 1 1.13 0v11.804Zm-2.89 0a.565.565 0 1 1-1.128 0V2.063a.565.565 0 1 1 1.129 0v11.804ZM3.84 32.046a.565.565 0 0 1-1.13 0V21.113c0-.023.002-.045.004-.066.058-1-.384-1.573-.85-2.177-.612-.79-1.255-1.623-1.255-3.259V2.063a.565.565 0 1 1 1.129 0V15.61c0 1.256.521 1.93 1.016 2.57.6.778 1.17 1.516 1.086 2.933v10.932ZM9.675 2.063a.565.565 0 0 1 1.13 0v12.025c0 2.1-.299 2.437-1.269 3.53-.125.14-.263.297-.45.515-1.364 1.6-1.94 3.634-1.837 5.694.11 2.172.975 4.37 2.47 6.121.87 1.02 1.578 1.53 2.235 1.53v-.003c.658 0 1.367-.509 2.236-1.527 1.495-1.75 2.36-3.948 2.47-6.121.103-2.06-.473-4.094-1.838-5.694-.187-.22-.325-.374-.45-.514-.97-1.094-1.267-1.43-1.267-3.53V2.062a.565.565 0 1 1 1.128 0v12.025c0 1.679.23 1.938.982 2.785.148.167.315.354.462.528 1.563 1.832 2.224 4.146 2.107 6.479-.122 2.418-1.081 4.86-2.738 6.8-1.095 1.283-2.069 1.925-3.092 1.925v-.002c-1.024 0-1.997-.64-3.091-1.923-1.657-1.94-2.617-4.382-2.738-6.8-.117-2.333.544-4.647 2.107-6.48.149-.174.314-.36.462-.527.751-.847.981-1.106.981-2.785V2.063Z" fill="#81D489"/><path fill-rule="evenodd" clip-rule="evenodd" d="M9.78 17.835c-.124.14-.261.294-.445.51-1.303 1.527-1.86 3.477-1.76 5.466.106 2.099.943 4.228 2.391 5.925.427.5.8.859 1.136 1.091.305.211.562.307.787.322h.065c.241 0 .519-.093.853-.324.335-.232.709-.59 1.135-1.088 1.448-1.697 2.285-3.827 2.391-5.926.1-1.99-.457-3.938-1.76-5.466a30.28 30.28 0 0 0-.432-.495l-.013-.015-.024-.027c-.464-.523-.815-.919-1.032-1.454-.221-.546-.294-1.209-.294-2.266V2.063a.891.891 0 1 1 1.781 0v12.025c0 .834.06 1.265.186 1.584.127.318.33.552.714.985l.053.06c.133.15.28.317.413.472 1.624 1.903 2.305 4.302 2.184 6.707-.125 2.491-1.112 5.001-2.816 6.996-1.11 1.301-2.167 2.04-3.34 2.04h-.326v-.022c-1.045-.124-2.007-.839-3.013-2.018-1.703-1.995-2.69-4.505-2.815-6.996-.121-2.405.56-4.804 2.184-6.707.136-.16.285-.328.42-.48l.046-.053c.384-.432.587-.666.714-.984.126-.32.185-.75.185-1.584V2.063a.891.891 0 0 1 1.782 0v12.025c0 1.057-.073 1.72-.294 2.266-.217.535-.568.93-1.032 1.454l-.024.027Zm-1.549-.434c-1.563 1.832-2.224 4.146-2.107 6.479.122 2.418 1.082 4.86 2.738 6.8 1.095 1.282 2.068 1.923 3.092 1.923v.002a2.36 2.36 0 0 0 .326-.022c.906-.123 1.787-.757 2.765-1.903 1.657-1.94 2.617-4.382 2.738-6.8.118-2.333-.544-4.647-2.106-6.479-.13-.153-.275-.317-.41-.468l-.052-.06c-.752-.847-.982-1.106-.982-2.785V2.063a.565.565 0 0 0-1.129 0v12.025c0 2.101.298 2.437 1.268 3.53l.014.016c.12.136.255.287.436.5 1.364 1.599 1.94 3.633 1.837 5.693-.11 2.173-.975 4.37-2.47 6.121-.869 1.018-1.577 1.528-2.235 1.528v.002a1.243 1.243 0 0 1-.327-.041c-.566-.14-1.18-.636-1.909-1.489-1.495-1.75-2.36-3.948-2.47-6.12-.103-2.06.474-4.095 1.838-5.695.187-.218.325-.374.45-.515.97-1.093 1.268-1.43 1.268-3.53V2.063a.565.565 0 1 0-1.13 0v12.025c0 1.679-.23 1.938-.98 2.785l-.046.051c-.136.154-.283.32-.417.477Zm-.189-3.534a.891.891 0 0 1-1.782 0V2.063a.891.891 0 1 1 1.782 0v11.805Zm-2.89 0a.891.891 0 1 1-1.781 0V2.063a.891.891 0 1 1 1.781 0v11.805Zm-.986 18.179a.891.891 0 0 1-1.782 0V21.113c0-.03.001-.06.005-.094.047-.862-.32-1.35-.784-1.95l-.002-.001c-.62-.803-1.32-1.71-1.32-3.457V2.063a.891.891 0 1 1 1.78 0V15.61c0 1.14.461 1.74.948 2.371l.01.012c.294.38.606.786.83 1.28.227.505.358 1.094.315 1.85v10.922ZM2.753 18.182c-.494-.64-1.016-1.315-1.016-2.57V2.061a.565.565 0 1 0-1.129 0v13.55c0 1.635.644 2.467 1.255 3.258.466.604.909 1.177.851 2.177a.555.555 0 0 0-.004.066v10.933a.565.565 0 1 0 1.13 0V21.114c.083-1.417-.486-2.155-1.087-2.932Zm4.398-3.75a.565.565 0 0 0 .565-.565V2.063a.565.565 0 1 0-1.13 0v11.805c0 .311.254.565.565.565Zm-2.89 0a.565.565 0 0 0 .565-.565V2.063a.565.565 0 1 0-1.129 0v11.805c0 .311.253.565.565.565Z" fill="#81D489"/><path d="M37.005 27.51c-1.385 0-2.607-.328-3.665-.982a6.817 6.817 0 0 1-2.483-2.684c-.596-1.135-.894-2.425-.894-3.868s.298-2.723.894-3.839c.597-1.135 1.424-2.02 2.483-2.655 1.077-.654 2.309-.981 3.694-.981 1.136 0 2.127.22 2.973.663a4.882 4.882 0 0 1 2.02 1.876V6.381h3.06v20.782h-2.742l-.317-2.222c-.462.673-1.097 1.27-1.905 1.79-.808.519-1.848.778-3.118.778Zm.549-2.656c1.308 0 2.376-.452 3.204-1.357.846-.904 1.27-2.068 1.27-3.492 0-1.443-.424-2.607-1.27-3.492-.828-.905-1.896-1.357-3.204-1.357-1.309 0-2.386.452-3.233 1.356-.846.886-1.27 2.05-1.27 3.493 0 .943.193 1.78.577 2.511a4.45 4.45 0 0 0 1.588 1.732c.693.404 1.472.606 2.338.606ZM50.677 10.134c-.578 0-1.059-.174-1.444-.52a1.843 1.843 0 0 1-.548-1.357c0-.538.183-.98.548-1.327.385-.366.866-.549 1.444-.549.577 0 1.048.183 1.414.549.385.346.577.789.577 1.327 0 .54-.192.991-.577 1.357-.366.346-.837.52-1.414.52Zm-1.53 17.03V12.846h3.06v14.316h-3.06ZM62.942 27.51c-1.405 0-2.656-.308-3.753-.924a6.801 6.801 0 0 1-2.54-2.627c-.615-1.116-.923-2.415-.923-3.896 0-1.501.298-2.82.895-3.955.615-1.135 1.462-2.02 2.54-2.655 1.096-.635 2.366-.952 3.81-.952 1.404 0 2.626.317 3.665.952a6.527 6.527 0 0 1 2.425 2.482c.577 1.04.866 2.184.866 3.435 0 .192-.01.404-.03.635 0 .212-.009.452-.028.722H58.727c.097 1.385.549 2.443 1.357 3.175.827.712 1.78 1.067 2.858 1.067.865 0 1.587-.192 2.164-.577a3.643 3.643 0 0 0 1.328-1.616h3.06c-.385 1.347-1.155 2.473-2.31 3.377-1.135.904-2.55 1.357-4.242 1.357Zm0-12.499a4.29 4.29 0 0 0-2.714.924c-.788.597-1.27 1.501-1.443 2.713h8.082c-.058-1.116-.452-2-1.183-2.655-.731-.654-1.646-.982-2.742-.982ZM78.738 27.163c-1.404 0-2.52-.337-3.348-1.01-.827-.693-1.24-1.915-1.24-3.666v-7.071h-2.454v-2.57h2.453l.375-3.636h2.685v3.637h4.04v2.569h-4.04v7.071c0 .79.163 1.338.49 1.646.347.288.934.432 1.761.432h1.645v2.598h-2.367Z" fill="#040404"/></svg>