<svg width="36" height="36" fill="none" xmlns="http://www.w3.org/2000/svg"><g clip-path="url('#clip0_8_579')"><path d="M32.438 34.917a2.69 2.69 0 0 0 2.687-2.688v-6.27a2.69 2.69 0 0 0-2.688-2.688c-2.096 0-4.156-.33-6.127-.98a2.729 2.729 0 0 0-2.729.65l-2.58 2.58a26.257 26.257 0 0 1-10.544-10.54l2.559-2.575c.738-.684 1.003-1.725.688-2.727a19.478 19.478 0 0 1-.975-6.117A2.69 2.69 0 0 0 10.042.876H3.77a2.69 2.69 0 0 0-2.688 2.688c0 17.29 14.065 31.354 31.355 31.354ZM3.77 2.667h6.27a.896.896 0 0 1 .896.896c0 2.287.359 4.534 1.063 6.664a.848.848 0 0 1-.228.891L8.268 14.64c2.933 5.784 7.265 10.116 13.075 13.074l3.492-3.494a.924.924 0 0 1 .925-.225c2.143.71 4.39 1.067 6.677 1.067.493 0 .896.404.896.896v6.271a.898.898 0 0 1-.895.896c-16.301 0-29.563-13.262-29.563-29.563a.896.896 0 0 1 .896-.895Z" fill="#000"/></g><defs><clipPath id="clip0_8_579"><path fill="#fff" transform="translate(.5 .5)" d="M0 0h35v35H0z"/></clipPath></defs></svg>