<svg width="24" height="24" fill="none" xmlns="http://www.w3.org/2000/svg"><path d="M12.046 1.875a.47.47 0 1 0-.007.938.47.47 0 0 0 .007-.938ZM12.025 4.688a3.285 3.285 0 0 0-3.306 3.256 3.285 3.285 0 0 0 3.256 3.306h.026a3.285 3.285 0 0 0 3.28-3.257 3.285 3.285 0 0 0-3.256-3.305ZM12 10.313h-.018A2.347 2.347 0 0 1 9.656 7.95a2.346 2.346 0 0 1 2.362-2.326 2.346 2.346 0 0 1 2.326 2.361A2.346 2.346 0 0 1 12 10.313ZM14.045 2.23a.469.469 0 0 0-.313.884 5.15 5.15 0 0 1 3.424 4.893.469.469 0 0 0 .466.472h.003a.469.469 0 0 0 .469-.465 6.089 6.089 0 0 0-4.049-5.784Z" fill="#fff"/><path d="M14.876 17.646c3.118-4.014 5.066-6.106 5.093-9.617C20.002 3.61 16.417 0 11.999 0 7.633 0 4.065 3.536 4.031 7.91c-.026 3.605 1.958 5.695 5.097 9.735-3.123.467-5.097 1.64-5.097 3.074 0 .96.888 1.823 2.501 2.427C8 23.697 9.942 24 12 24s4-.303 5.468-.854c1.613-.604 2.5-1.466 2.5-2.427 0-1.434-1.972-2.606-5.092-3.073ZM4.97 7.916a7.04 7.04 0 0 1 7.03-6.978c3.898 0 7.061 3.186 7.032 7.084-.025 3.334-2.091 5.389-5.39 9.69a92.153 92.153 0 0 0-1.64 2.2c-.51-.71-1.04-1.421-1.637-2.2-3.435-4.481-5.42-6.38-5.395-9.796ZM12 23.062c-4.024 0-7.031-1.237-7.031-2.343 0-.82 1.797-1.857 4.82-2.216a83.506 83.506 0 0 1 1.828 2.486.47.47 0 0 0 .765 0 86.77 86.77 0 0 1 1.834-2.486c3.02.36 4.815 1.396 4.815 2.216 0 1.106-3.007 2.343-7.031 2.343Z" fill="#fff"/></svg>