<svg width="1460" height="714" fill="none" xmlns="http://www.w3.org/2000/svg"><g clip-path="url('#clip0_8_354')"><mask id="mask0_8_354" style="mask-type:alpha" maskUnits="userSpaceOnUse" x="0" y="0" width="1460" height="714"><path d="M1459.77 0H.23v713.047h1459.54V0Z" fill="#F8F8F8"/></mask><g mask="url('#mask0_8_354')"><path d="M164.428 467.129c0-74.52-60.411-134.931-134.932-134.931-74.52 0-134.931 60.411-134.931 134.931v315.474c0 74.521 60.41 134.932 134.931 134.932 74.521 0 134.932-60.411 134.932-134.932V467.129Z" fill="#E6F0E3" fill-opacity=".8"/><path d="M186.853 489.935c0-74.311-60.241-134.552-134.552-134.552-74.31 0-134.551 60.241-134.551 134.552v315.473c0 74.311 60.24 134.552 134.551 134.552 74.311 0 134.552-60.241 134.552-134.552V489.935Z" stroke="#DFDFDF" stroke-width=".76"/><path d="M1593.94-30.787c0-74.311-60.24-134.552-134.55-134.552s-134.55 60.241-134.55 134.552v315.474c0 74.31 60.24 134.551 134.55 134.551s134.55-60.241 134.55-134.551V-30.787Z" stroke="#E6E6E6" stroke-width=".76"/><path d="M1647.15 90.841c0-74.31-60.24-134.551-134.55-134.551S1378.05 16.53 1378.05 90.84v315.474c0 74.311 60.24 134.552 134.55 134.552s134.55-60.241 134.55-134.552V90.841Z" stroke="#E6E6E6" stroke-width=".76"/></g></g><defs><clipPath id="clip0_8_354"><path fill="#fff" transform="translate(.23)" d="M0 0h1459.54v713.047H0z"/></clipPath></defs></svg>