<svg width="1814" height="722" fill="none" xmlns="http://www.w3.org/2000/svg"><g clip-path="url('#clip0_8_505')"><path d="M1813.04 0H.96v722h1812.08V0Z" fill="#EFF6ED"/><mask id="mask0_8_505" style="mask-type:alpha" maskUnits="userSpaceOnUse" x="0" y="0" width="1814" height="722"><path d="M1813.04 0H.96v722h1812.08V0Z" fill="#EFF6ED"/><path d="M988.111 606.1a1.214 1.214 0 0 1-.375-.888c0-.341.125-.637.375-.887l7.325-7.325-7.35-7.35a1.184 1.184 0 0 1-.35-.875c0-.35.125-.65.375-.9s.546-.375.888-.375c.341 0 .637.125.887.375l8.4 8.425c.1.1.171.208.213.325.041.117.062.242.062.375s-.021.258-.062.375a.88.88 0 0 1-.213.325l-8.425 8.425c-.234.233-.521.35-.862.35-.342 0-.638-.125-.888-.375Z" fill="#000"/></mask><g mask="url('#mask0_8_505')" stroke="#D8E1D5" stroke-width=".944"><path d="M-58.97 914.061c0 92.259 74.791 167.049 167.051 167.049 92.26 0 167.051-74.79 167.051-167.049V522.388c0-92.26-74.791-167.051-167.051-167.051-92.26 0-167.05 74.791-167.05 167.051v391.673Z"/><path d="M-134.473 763.055c0 92.26 74.791 167.051 167.05 167.051 92.261 0 167.052-74.791 167.052-167.051V371.382c0-92.26-74.791-167.051-167.051-167.051-92.26 0-167.051 74.791-167.051 167.051v391.673Z"/></g></g><defs><clipPath id="clip0_8_505"><path fill="#fff" transform="translate(.96)" d="M0 0h1812.08v722H0z"/></clipPath></defs></svg>