<svg width="51" height="51" fill="none" xmlns="http://www.w3.org/2000/svg"><path fill="#57B33E" d="M.969 0h50v51h-50z"/><g clip-path="url('#clip0_8_659')"><mask id="mask0_8_659" style="mask-type:luminance" maskUnits="userSpaceOnUse" x="14" y="14" width="23" height="23"><path d="M36.969 14.5h-22v22h22v-22Z" fill="#fff"/></mask><g mask="url('#mask0_8_659')"><path d="M15.66 25.68c-.97.555-.88 2.033.155 2.463l6.029 2.513v4.44a1.403 1.403 0 0 0 2.483.897l2.664-3.192 5.324 2.217c.812.34 1.753-.194 1.887-1.062l2.75-17.875a1.37 1.37 0 0 0-.58-1.34 1.38 1.38 0 0 0-1.462-.06l-19.25 11Zm2.24 1.096 14.673-8.383-9.436 10.545.052.043-5.29-2.205Zm14.398 6.003-7.159-2.986 9.2-10.283-2.041 13.27Z" fill="#fff"/></g></g><defs><clipPath id="clip0_8_659"><path fill="#fff" transform="translate(14.969 14.5)" d="M0 0h22v22H0z"/></clipPath></defs></svg>